<svg xmlns="http://www.w3.org/2000/svg" viewBox="0 0 24 24">
<g><g data-name="ico/menu" style="mix-blend-mode:normal;isolation:isolate">
<path data-name="Rectangle 1278" fill="rgba(110,40,40,0)" d="M0 0h24v24H0z"></path>
<path data-name="Tracé 10516" d="M1.976 15.957l1.743 4.632 1.739-4.632h1.357V22H5.769v-1.992l.1-2.665L4.088 22h-.751l-1.781-4.653.1 2.66V22H.614v-6.043zm9.612 3.343H9.106v1.862h2.9V22h-3.95v-6.043h3.922v.843H9.106v1.668h2.482zm6.068 2.7h-1.05l-2.694-4.287V22h-1.05v-6.043h1.05l2.7 4.3v-4.3h1.042zm5.661-6.043V20a1.963 1.963 0 01-.617 1.521 2.341 2.341 0 01-1.641.562 2.358 2.358 0 01-1.648-.554 1.972 1.972 0 01-.61-1.538v-4.034h1.046V20a1.284 1.284 0 00.307.926 1.2 1.2 0 00.9.32q1.212 0 1.212-1.278v-4.011z"></path><path data-name="Ligne 3298" d="M23.5 10.5H.5A.5.5 0 010 10a.5.5 0 01.5-.5h23a.5.5 0 01.5.5.5.5 0 01-.5.5z"></path><path data-name="Ligne 3297" d="M23.5 2.5H.5A.5.5 0 010 2a.5.5 0 01.5-.5h23a.5.5 0 01.5.5.5.5 0 01-.5.5z"></path></g></g></svg>