<svg width="45" height="58" viewBox="0 0 45 58" fill="none" xmlns="http://www.w3.org/2000/svg">
<mask id="path-1-inside-1_1582:2029" fill="white">
<path fill-rule="evenodd" clip-rule="evenodd" d="M39.6559 22.846C39.6559 22.3994 39.9792 22.0355 40.3759 22.0355C40.7726 22.0355 41.0959 22.3994 41.0959 22.846C41.0959 23.2945 40.7726 23.6565 40.3759 23.6565C39.9792 23.6565 39.6559 23.2945 39.6559 22.846Z"/>
<path fill-rule="evenodd" clip-rule="evenodd" d="M41.9713 22.5167V24.1791H44.2856V17.1301C44.2856 15.7298 44.2419 14.3296 44.1538 12.9325L43.8181 7.58116C43.7229 6.06398 43.2532 3.28627 41.8657 3.28627H39.0285C37.6418 3.28627 37.1599 5.66683 37.0647 7.18401L36.6939 13.0809C36.6123 14.3791 36.5714 15.6804 36.5714 16.9817V24.1791H38.8857V22.5167C38.8857 21.5173 39.5332 20.739 40.4289 20.739C41.3245 20.739 41.9713 21.5299 41.9713 22.5167Z"/>
<path fill-rule="evenodd" clip-rule="evenodd" d="M38.8846 29.5776V25.7855H36.5703V41.6263C36.5703 43.9275 36.6605 46.228 36.8388 48.5202C36.9469 49.9042 37.1366 51.2792 37.4037 52.6383L37.6829 54.0617C37.7215 54.4333 38.0186 54.714 38.3716 54.714H42.4839C42.8368 54.714 43.1339 54.4333 43.1726 54.0617L43.5277 52.2547C43.7239 51.2542 43.8706 50.244 43.9587 49.2262C44.1756 46.7002 44.2844 44.1644 44.2844 41.6263V25.7855H41.9702V29.5776C41.9702 30.4119 41.3234 31.2916 40.4277 31.2916C39.5321 31.2916 38.8846 30.3882 38.8846 29.5776Z"/>
<path fill-rule="evenodd" clip-rule="evenodd" d="M7.71504 14.8577C4.53588 14.8577 1.47127 12.2129 0.571289 9.03026V8.01083C0.571289 3.98144 3.76992 0.714844 7.71504 0.714844H19.1405C23.0872 0.714844 26.285 3.98144 26.285 8.01083V14.8577H7.71504Z"/>
<path fill-rule="evenodd" clip-rule="evenodd" d="M26.285 16.5887V49.6959C26.285 53.8871 23.0872 57.2863 19.1405 57.2863H7.71504C3.76992 57.2863 0.571289 53.8871 0.571289 49.6959V12.2863C1.90217 15.1872 4.76107 16.5887 7.71504 16.5887H26.285Z"/>
</mask>
<path d="M41.9713 24.1791H39.9713C39.9713 25.2837 40.8668 26.1791 41.9713 26.1791V24.1791ZM44.2856 24.1791V26.1791C45.3901 26.1791 46.2856 25.2837 46.2856 24.1791H44.2856ZM44.1538 12.9325L42.1578 13.0578L42.1578 13.0583L44.1538 12.9325ZM43.8181 7.58116L45.8141 7.45592V7.45589L43.8181 7.58116ZM37.0647 7.18401L39.0608 7.30954L39.0608 7.30929L37.0647 7.18401ZM36.6939 13.0809L34.6978 12.9553L34.6978 12.9554L36.6939 13.0809ZM36.5714 24.1791H34.5714C34.5714 25.2837 35.4669 26.1791 36.5714 26.1791V24.1791ZM38.8857 24.1791V26.1791C39.9903 26.1791 40.8857 25.2837 40.8857 24.1791H38.8857ZM38.8846 25.7855H40.8846C40.8846 24.6809 39.9891 23.7855 38.8846 23.7855V25.7855ZM36.5703 25.7855V23.7855C35.4657 23.7855 34.5703 24.6809 34.5703 25.7855H36.5703ZM36.8388 48.5202L34.8448 48.6752L34.8449 48.6759L36.8388 48.5202ZM37.4037 52.6383L39.3663 52.2533L39.3661 52.2527L37.4037 52.6383ZM37.6829 54.0617L39.6721 53.8548C39.6659 53.7951 39.657 53.7357 39.6455 53.6768L37.6829 54.0617ZM43.1726 54.0617L41.2101 53.6761C41.1985 53.7352 41.1896 53.7948 41.1833 53.8548L43.1726 54.0617ZM43.5277 52.2547L45.4902 52.6403L45.4903 52.6395L43.5277 52.2547ZM43.9587 49.2262L45.9512 49.3986L45.9514 49.3973L43.9587 49.2262ZM44.2844 25.7855H46.2844C46.2844 24.6809 45.389 23.7855 44.2844 23.7855V25.7855ZM41.9702 25.7855V23.7855C40.8656 23.7855 39.9702 24.6809 39.9702 25.7855H41.9702ZM0.571289 9.03026H-1.42871C-1.42871 9.21427 -1.40332 9.3974 -1.35324 9.57447L0.571289 9.03026ZM26.285 14.8577V16.8577C27.3896 16.8577 28.285 15.9623 28.285 14.8577H26.285ZM26.285 16.5887H28.285C28.285 15.4842 27.3896 14.5887 26.285 14.5887V16.5887ZM0.571289 12.2863L2.38911 11.4523C1.9971 10.5978 1.06291 10.1317 0.144466 10.3323C-0.773974 10.533 -1.42871 11.3462 -1.42871 12.2863H0.571289ZM41.6559 22.846C41.6559 23.2747 41.2999 24.0355 40.3759 24.0355V20.0355C38.6586 20.0355 37.6559 21.5241 37.6559 22.846H41.6559ZM40.3759 24.0355C39.4519 24.0355 39.0959 23.2747 39.0959 22.846H43.0959C43.0959 21.5241 42.0933 20.0355 40.3759 20.0355V24.0355ZM39.0959 22.846C39.0959 22.4159 39.4549 21.6565 40.3759 21.6565V25.6565C42.0904 25.6565 43.0959 24.1731 43.0959 22.846H39.0959ZM40.3759 21.6565C41.297 21.6565 41.6559 22.4159 41.6559 22.846H37.6559C37.6559 24.1731 38.6615 25.6565 40.3759 25.6565V21.6565ZM39.9713 22.5167V24.1791H43.9713V22.5167H39.9713ZM41.9713 26.1791H44.2856V22.1791H41.9713V26.1791ZM46.2856 24.1791V17.1301H42.2856V24.1791H46.2856ZM46.2856 17.1301C46.2856 15.6883 46.2406 14.2461 46.1499 12.8067L42.1578 13.0583C42.2432 14.4131 42.2856 15.7714 42.2856 17.1301H46.2856ZM46.1499 12.8073L45.8141 7.45592L41.822 7.70641L42.1578 13.0578L46.1499 12.8073ZM45.8141 7.45589C45.7612 6.61162 45.603 5.33925 45.2186 4.21682C45.0289 3.66292 44.7379 3.00509 44.2689 2.45141C43.7739 1.86696 42.9706 1.28627 41.8657 1.28627V5.28627C41.4546 5.28627 41.2303 5.05279 41.2166 5.03658C41.2146 5.03431 41.2421 5.06726 41.2877 5.1563C41.3321 5.24313 41.3824 5.36107 41.4344 5.51273C41.6555 6.15844 41.7798 7.03352 41.822 7.70644L45.8141 7.45589ZM41.8657 1.28627H39.0285V5.28627H41.8657V1.28627ZM39.0285 1.28627C36.9712 1.28627 36.0419 3.05927 35.6987 3.94026C35.2875 4.99594 35.1225 6.20016 35.0686 7.05874L39.0608 7.30929C39.1021 6.65068 39.2257 5.90603 39.4259 5.39213C39.5265 5.13397 39.5979 5.06196 39.5792 5.08098C39.525 5.13645 39.3245 5.28627 39.0285 5.28627V1.28627ZM35.0687 7.05848L34.6978 12.9553L38.6899 13.2064L39.0608 7.30954L35.0687 7.05848ZM34.6978 12.9554C34.6136 14.2954 34.5714 15.6386 34.5714 16.9817H38.5714C38.5714 15.7222 38.6109 14.4627 38.6899 13.2063L34.6978 12.9554ZM34.5714 16.9817V24.1791H38.5714V16.9817H34.5714ZM36.5714 26.1791H38.8857V22.1791H36.5714V26.1791ZM40.8857 24.1791V22.5167H36.8857V24.1791H40.8857ZM40.8857 22.5167C40.8857 22.4428 40.9088 22.4743 40.84 22.5546C40.8047 22.5958 40.7479 22.6448 40.6674 22.6831C40.5847 22.7223 40.5 22.739 40.4289 22.739V18.739C38.1504 18.739 36.8857 20.7133 36.8857 22.5167H40.8857ZM40.4289 22.739C40.3526 22.739 40.2653 22.7209 40.1822 22.681C40.1018 22.6424 40.0469 22.5939 40.0138 22.5551C39.9506 22.4809 39.9713 22.453 39.9713 22.5167H43.9713C43.9713 20.7369 42.7168 18.739 40.4289 18.739V22.739ZM40.8846 29.5776V25.7855H36.8846V29.5776H40.8846ZM38.8846 23.7855H36.5703V27.7855H38.8846V23.7855ZM34.5703 25.7855V41.6263H38.5703V25.7855H34.5703ZM34.5703 41.6263C34.5703 43.9798 34.6626 46.332 34.8448 48.6752L38.8328 48.3651C38.6585 46.124 38.5703 43.8753 38.5703 41.6263H34.5703ZM34.8449 48.6759C34.9591 50.1386 35.1595 51.5903 35.4412 53.0239L39.3661 52.2527C39.1137 50.9682 38.9347 49.6699 38.8327 48.3644L34.8449 48.6759ZM35.4411 53.0233L35.7203 54.4467L39.6455 53.6768L39.3663 52.2533L35.4411 53.0233ZM35.6936 54.2687C35.8291 55.5711 36.908 56.714 38.3716 56.714V52.714C39.1293 52.714 39.6139 53.2954 39.6721 53.8548L35.6936 54.2687ZM38.3716 56.714H42.4839V52.714H38.3716V56.714ZM42.4839 56.714C43.9475 56.714 45.0263 55.5711 45.1619 54.2687L41.1833 53.8548C41.2415 53.2955 41.7262 52.714 42.4839 52.714V56.714ZM45.1351 54.4474L45.4902 52.6403L41.5652 51.869L41.2101 53.6761L45.1351 54.4474ZM45.4903 52.6395C45.6992 51.5745 45.8565 50.4932 45.9512 49.3986L41.9661 49.0538C41.8847 49.9948 41.7486 50.934 41.5651 51.8698L45.4903 52.6395ZM45.9514 49.3973C46.1732 46.8145 46.2844 44.2216 46.2844 41.6263H42.2844C42.2844 44.1072 42.1781 46.586 41.966 49.0551L45.9514 49.3973ZM46.2844 41.6263V25.7855H42.2844V41.6263H46.2844ZM44.2844 23.7855H41.9702V27.7855H44.2844V23.7855ZM39.9702 25.7855V29.5776H43.9702V25.7855H39.9702ZM39.9702 29.5776C39.9702 29.5308 39.9785 29.5056 39.9816 29.4975C39.9847 29.4892 39.9905 29.4763 40.0065 29.4574C40.0374 29.4208 40.1787 29.2916 40.4277 29.2916V33.2916C41.5724 33.2916 42.4849 32.7226 43.0631 32.0375C43.6285 31.3677 43.9702 30.4866 43.9702 29.5776H39.9702ZM40.4277 29.2916C40.6948 29.2916 40.8344 29.4315 40.854 29.4549C40.8659 29.4692 40.8695 29.4775 40.8718 29.4835C40.8737 29.4887 40.8846 29.5182 40.8846 29.5776H36.8846C36.8846 30.4835 37.2322 31.3599 37.7866 32.0222C38.3538 32.6999 39.265 33.2916 40.4277 33.2916V29.2916ZM7.71504 12.8577C5.57718 12.8577 3.19454 10.9569 2.49582 8.48604L-1.35324 9.57447C-0.251996 13.4689 3.49459 16.8577 7.71504 16.8577V12.8577ZM2.57129 9.03026V8.01083H-1.42871V9.03026H2.57129ZM2.57129 8.01083C2.57129 5.04608 4.91401 2.71484 7.71504 2.71484V-1.28516C2.62584 -1.28516 -1.42871 2.91681 -1.42871 8.01083H2.57129ZM7.71504 2.71484H19.1405V-1.28516H7.71504V2.71484ZM19.1405 2.71484C21.9431 2.71484 24.285 5.04608 24.285 8.01083H28.285C28.285 2.91681 24.2313 -1.28516 19.1405 -1.28516V2.71484ZM24.285 8.01083V14.8577H28.285V8.01083H24.285ZM26.285 12.8577H7.71504V16.8577H26.285V12.8577ZM24.285 16.5887V49.6959H28.285V16.5887H24.285ZM24.285 49.6959C24.285 52.8986 21.87 55.2863 19.1405 55.2863V59.2863C24.3044 59.2863 28.285 54.8755 28.285 49.6959H24.285ZM19.1405 55.2863H7.71504V59.2863H19.1405V55.2863ZM7.71504 55.2863C4.98712 55.2863 2.57129 52.8986 2.57129 49.6959H-1.42871C-1.42871 54.8755 2.55272 59.2863 7.71504 59.2863V55.2863ZM2.57129 49.6959V12.2863H-1.42871V49.6959H2.57129ZM-1.24653 13.1203C0.476303 16.8755 4.15092 18.5887 7.71504 18.5887V14.5887C5.37122 14.5887 3.32804 13.4989 2.38911 11.4523L-1.24653 13.1203ZM7.71504 18.5887H26.285V14.5887H7.71504V18.5887Z" fill="#00D1D2" mask="url(#path-1-inside-1_1582:2029)"/>
</svg>
