<svg width="23" height="30" viewBox="0 0 23 30" fill="none" xmlns="http://www.w3.org/2000/svg">
<mask id="path-1-inside-1_1582:2701" fill="white">
<path fill-rule="evenodd" clip-rule="evenodd" d="M19.8285 11.921C19.8285 11.6978 19.9901 11.5158 20.1884 11.5158C20.3868 11.5158 20.5484 11.6978 20.5484 11.921C20.5484 12.1453 20.3868 12.3263 20.1884 12.3263C19.9901 12.3263 19.8285 12.1453 19.8285 11.921Z"/>
<path fill-rule="evenodd" clip-rule="evenodd" d="M20.9862 11.7564V12.5876H22.1433V9.06308C22.1433 8.36297 22.1214 7.66285 22.0774 6.9643L21.9095 4.28863C21.8619 3.53004 21.6271 2.14118 20.9334 2.14118H19.5147C18.8214 2.14118 18.5805 3.33146 18.5328 4.09005L18.3474 7.03847C18.3066 7.68757 18.2862 8.33824 18.2862 8.98891V12.5876H19.4433V11.7564C19.4433 11.2567 19.7671 10.8675 20.2149 10.8675C20.6627 10.8675 20.9862 11.263 20.9862 11.7564Z"/>
<path fill-rule="evenodd" clip-rule="evenodd" d="M19.4428 15.2868V13.3908H18.2856V21.3112C18.2856 22.4618 18.3307 23.6121 18.4199 24.7581C18.4739 25.4502 18.5688 26.1377 18.7023 26.8172L18.8419 27.5289C18.8612 27.7147 19.0098 27.8551 19.1863 27.8551H21.2424C21.4189 27.8551 21.5675 27.7147 21.5868 27.5289L21.7643 26.6254C21.8624 26.1252 21.9358 25.6201 21.9798 25.1111C22.0883 23.8482 22.1427 22.5802 22.1427 21.3112V13.3908H20.9856V15.2868C20.9856 15.704 20.6622 16.1438 20.2144 16.1438C19.7665 16.1438 19.4428 15.6922 19.4428 15.2868Z"/>
<path fill-rule="evenodd" clip-rule="evenodd" d="M3.85801 7.9269C2.26843 7.9269 0.736123 6.60449 0.286133 5.01318V4.50346C0.286133 2.48877 1.88545 0.855469 3.85801 0.855469H9.57074C11.5441 0.855469 13.143 2.48877 13.143 4.50346V7.9269H3.85801Z"/>
<path fill-rule="evenodd" clip-rule="evenodd" d="M13.143 8.79241V25.346C13.143 27.4416 11.5441 29.1412 9.57074 29.1412H3.85801C1.88545 29.1412 0.286133 27.4416 0.286133 25.346V6.64118C0.951573 8.09164 2.38102 8.79241 3.85801 8.79241H13.143Z"/>
</mask>
<path d="M20.9862 12.5876H19.9862C19.9862 13.1399 20.4339 13.5876 20.9862 13.5876V12.5876ZM22.1433 12.5876V13.5876C22.6956 13.5876 23.1433 13.1399 23.1433 12.5876H22.1433ZM22.0774 6.9643L21.0794 7.02692L21.0794 7.02721L22.0774 6.9643ZM21.9095 4.28863L22.9076 4.22601V4.22599L21.9095 4.28863ZM18.5328 4.09005L19.5309 4.15282L19.5309 4.15269L18.5328 4.09005ZM18.3474 7.03847L17.3494 6.97571L17.3494 6.97573L18.3474 7.03847ZM18.2862 12.5876H17.2862C17.2862 13.1399 17.7339 13.5876 18.2862 13.5876V12.5876ZM19.4433 12.5876V13.5876C19.9956 13.5876 20.4433 13.1399 20.4433 12.5876H19.4433ZM19.4428 13.3908H20.4428C20.4428 12.8385 19.995 12.3908 19.4428 12.3908V13.3908ZM18.2856 13.3908V12.3908C17.7334 12.3908 17.2856 12.8385 17.2856 13.3908H18.2856ZM18.4199 24.7581L17.4229 24.8357L17.4229 24.836L18.4199 24.7581ZM18.7023 26.8172L19.6836 26.6247L19.6836 26.6244L18.7023 26.8172ZM18.8419 27.5289L19.8365 27.4254C19.8334 27.3956 19.829 27.3659 19.8232 27.3364L18.8419 27.5289ZM21.5868 27.5289L20.6056 27.3361C20.5997 27.3657 20.5953 27.3955 20.5922 27.4254L21.5868 27.5289ZM21.7643 26.6254L22.7456 26.8182L22.7457 26.8178L21.7643 26.6254ZM21.9798 25.1111L22.9761 25.1973L22.9762 25.1967L21.9798 25.1111ZM22.1427 13.3908H23.1427C23.1427 12.8385 22.695 12.3908 22.1427 12.3908V13.3908ZM20.9856 13.3908V12.3908C20.4333 12.3908 19.9856 12.8385 19.9856 13.3908H20.9856ZM0.286133 5.01318H-0.713867C-0.713867 5.10518 -0.70117 5.19675 -0.676134 5.28528L0.286133 5.01318ZM13.143 7.9269V8.9269C13.6953 8.9269 14.143 8.47918 14.143 7.9269H13.143ZM13.143 8.79241H14.143C14.143 8.24013 13.6953 7.79241 13.143 7.79241V8.79241ZM0.286133 6.64118L1.19504 6.22419C0.999038 5.79696 0.531941 5.56391 0.0727213 5.66422C-0.386499 5.76454 -0.713867 6.17114 -0.713867 6.64118H0.286133ZM20.8285 11.921C20.8285 12.1354 20.6504 12.5158 20.1884 12.5158V10.5158C19.3298 10.5158 18.8285 11.2601 18.8285 11.921H20.8285ZM20.1884 12.5158C19.7265 12.5158 19.5484 12.1354 19.5484 11.921H21.5484C21.5484 11.2601 21.0471 10.5158 20.1884 10.5158V12.5158ZM19.5484 11.921C19.5484 11.706 19.7279 11.3263 20.1884 11.3263V13.3263C21.0457 13.3263 21.5484 12.5846 21.5484 11.921H19.5484ZM20.1884 11.3263C20.649 11.3263 20.8285 11.706 20.8285 11.921H18.8285C18.8285 12.5846 19.3312 13.3263 20.1884 13.3263V11.3263ZM19.9862 11.7564V12.5876H21.9862V11.7564H19.9862ZM20.9862 13.5876H22.1433V11.5876H20.9862V13.5876ZM23.1433 12.5876V9.06308H21.1433V12.5876H23.1433ZM23.1433 9.06308C23.1433 8.34218 23.1208 7.62108 23.0754 6.9014L21.0794 7.02721C21.1221 7.70461 21.1433 8.38375 21.1433 9.06308H23.1433ZM23.0754 6.90168L22.9076 4.22601L20.9115 4.35125L21.0794 7.02692L23.0754 6.90168ZM22.9076 4.22599C22.8811 3.80386 22.802 3.16767 22.6098 2.60646C22.515 2.32951 22.3694 2.00059 22.1349 1.72375C21.8874 1.43153 21.4858 1.14118 20.9334 1.14118V3.14118C20.7278 3.14118 20.6156 3.02444 20.6088 3.01634C20.6078 3.0152 20.6215 3.03168 20.6443 3.0762C20.6665 3.11961 20.6917 3.17858 20.7177 3.25441C20.8282 3.57727 20.8904 4.01481 20.9115 4.35127L22.9076 4.22599ZM20.9334 1.14118H19.5147V3.14118H20.9334V1.14118ZM19.5147 1.14118C18.4861 1.14118 18.0214 2.02768 17.8498 2.46818C17.6442 2.99602 17.5618 3.59813 17.5348 4.02742L19.5309 4.15269C19.5516 3.82339 19.6133 3.45106 19.7134 3.19411C19.7637 3.06503 19.7994 3.02903 19.7901 3.03854C19.763 3.06627 19.6627 3.14118 19.5147 3.14118V1.14118ZM17.5348 4.02729L17.3494 6.97571L19.3455 7.10124L19.5309 4.15282L17.5348 4.02729ZM17.3494 6.97573C17.3073 7.64575 17.2862 8.31735 17.2862 8.98891H19.2862C19.2862 8.35914 19.306 7.72939 19.3455 7.10122L17.3494 6.97573ZM17.2862 8.98891V12.5876H19.2862V8.98891H17.2862ZM18.2862 13.5876H19.4433V11.5876H18.2862V13.5876ZM20.4433 12.5876V11.7564H18.4433V12.5876H20.4433ZM20.4433 11.7564C20.4433 11.7194 20.4549 11.7352 20.4205 11.7753C20.4028 11.796 20.3745 11.8205 20.3342 11.8396C20.2928 11.8592 20.2505 11.8675 20.2149 11.8675V9.86754C19.0757 9.86754 18.4433 10.8547 18.4433 11.7564H20.4433ZM20.2149 11.8675C20.1768 11.8675 20.1331 11.8585 20.0916 11.8386C20.0514 11.8192 20.0239 11.795 20.0074 11.7756C19.9758 11.7385 19.9862 11.7245 19.9862 11.7564H21.9862C21.9862 10.8665 21.3589 9.86754 20.2149 9.86754V11.8675ZM20.4428 15.2868V13.3908H18.4428V15.2868H20.4428ZM19.4428 12.3908H18.2856V14.3908H19.4428V12.3908ZM17.2856 13.3908V21.3112H19.2856V13.3908H17.2856ZM17.2856 21.3112C17.2856 22.4879 17.3318 23.664 17.4229 24.8357L19.4169 24.6806C19.3297 23.5601 19.2856 22.4357 19.2856 21.3112H17.2856ZM17.4229 24.836C17.48 25.5673 17.5802 26.2932 17.7211 27.01L19.6836 26.6244C19.5574 25.9821 19.4678 25.333 19.4168 24.6803L17.4229 24.836ZM17.721 27.0097L17.8606 27.7214L19.8232 27.3364L19.6836 26.6247L17.721 27.0097ZM17.8473 27.6324C17.915 28.2836 18.4545 28.8551 19.1863 28.8551V26.8551C19.5651 26.8551 19.8075 27.1458 19.8365 27.4254L17.8473 27.6324ZM19.1863 28.8551H21.2424V26.8551H19.1863V28.8551ZM21.2424 28.8551C21.9742 28.8551 22.5137 28.2836 22.5814 27.6324L20.5922 27.4254C20.6213 27.1458 20.8636 26.8551 21.2424 26.8551V28.8551ZM22.568 27.7217L22.7456 26.8182L20.7831 26.4326L20.6056 27.3361L22.568 27.7217ZM22.7457 26.8178C22.8501 26.2853 22.9288 25.7447 22.9761 25.1973L20.9836 25.025C20.9428 25.4954 20.8748 25.965 20.783 26.433L22.7457 26.8178ZM22.9762 25.1967C23.0871 23.9053 23.1427 22.6088 23.1427 21.3112H21.1427C21.1427 22.5517 21.0895 23.791 20.9835 25.0256L22.9762 25.1967ZM23.1427 21.3112V13.3908H21.1427V21.3112H23.1427ZM22.1427 12.3908H20.9856V14.3908H22.1427V12.3908ZM19.9856 13.3908V15.2868H21.9856V13.3908H19.9856ZM19.9856 15.2868C19.9856 15.2634 19.9898 15.2509 19.9913 15.2468C19.9928 15.2426 19.9958 15.2362 20.0037 15.2267C20.0192 15.2084 20.0898 15.1438 20.2144 15.1438V17.1438C20.7867 17.1438 21.2429 16.8593 21.5321 16.5168C21.8147 16.1819 21.9856 15.7413 21.9856 15.2868H19.9856ZM20.2144 15.1438C20.3479 15.1438 20.4177 15.2138 20.4275 15.2255C20.4334 15.2326 20.4352 15.2368 20.4364 15.2398C20.4374 15.2424 20.4428 15.2572 20.4428 15.2868H18.4428C18.4428 15.7398 18.6166 16.178 18.8938 16.5092C19.1774 16.848 19.633 17.1438 20.2144 17.1438V15.1438ZM3.85801 6.9269C2.78908 6.9269 1.59776 5.97651 1.2484 4.74107L-0.676134 5.28528C-0.12551 7.23248 1.74778 8.9269 3.85801 8.9269V6.9269ZM1.28613 5.01318V4.50346H-0.713867V5.01318H1.28613ZM1.28613 4.50346C1.28613 3.02109 2.45749 1.85547 3.85801 1.85547V-0.144531C1.31341 -0.144531 -0.713867 1.95645 -0.713867 4.50346H1.28613ZM3.85801 1.85547H9.57074V-0.144531H3.85801V1.85547ZM9.57074 1.85547C10.972 1.85547 12.143 3.02109 12.143 4.50346H14.143C14.143 1.95645 12.1161 -0.144531 9.57074 -0.144531V1.85547ZM12.143 4.50346V7.9269H14.143V4.50346H12.143ZM13.143 6.9269H3.85801V8.9269H13.143V6.9269ZM12.143 8.79241V25.346H14.143V8.79241H12.143ZM12.143 25.346C12.143 26.9473 10.9355 28.1412 9.57074 28.1412V30.1412C12.1527 30.1412 14.143 27.9358 14.143 25.346H12.143ZM9.57074 28.1412H3.85801V30.1412H9.57074V28.1412ZM3.85801 28.1412C2.49405 28.1412 1.28613 26.9473 1.28613 25.346H-0.713867C-0.713867 27.9358 1.27685 30.1412 3.85801 30.1412V28.1412ZM1.28613 25.346V6.64118H-0.713867V25.346H1.28613ZM-0.622778 7.05817C0.23864 8.9358 2.07595 9.79241 3.85801 9.79241V7.79241C2.6861 7.79241 1.66451 7.24748 1.19504 6.22419L-0.622778 7.05817ZM3.85801 9.79241H13.143V7.79241H3.85801V9.79241Z" fill="#00D1D2" mask="url(#path-1-inside-1_1582:2701)"/>
</svg>
