<svg xmlns="http://www.w3.org/2000/svg" width="25" height="25" viewBox="0 0 25 25">
  <g id="picto_electromenager" data-name="picto/electromenager" transform="translate(0 0.185)">
    <g id="ico_electromenager" data-name="ico electromenager" transform="translate(0 0)">
      <rect id="BG" width="25" height="25" transform="translate(0 -0.185)" fill="none"/>
      <rect id="Rectangle_41" data-name="Rectangle 41" width="18" height="3" transform="translate(3 18.815)" fill="none" stroke="#000" stroke-linecap="round" stroke-linejoin="round" stroke-width="1"/>
      <rect id="Rectangle_42" data-name="Rectangle 42" width="2.666" height="10.513" transform="translate(6.004 8.302)" fill="none" stroke="#000" stroke-linecap="round" stroke-linejoin="round" stroke-width="1"/>
      <line id="Ligne_35" data-name="Ligne 35" y2="7.401" transform="translate(15.167 8.69)" fill="none" stroke="#000" stroke-linecap="round" stroke-linejoin="round" stroke-width="1"/>
      <rect id="Rectangle_44" data-name="Rectangle 44" width="3.2" height="5.091" rx="1.6" transform="translate(13.567 11.211)" fill="none" stroke="#000" stroke-linecap="round" stroke-linejoin="round" stroke-width="1"/>
    </g>
    <path id="Tracé_10952" data-name="Tracé 10952" d="M-115.965,265.652H-128.7a1.137,1.137,0,0,0-1.136,1.136v4.237a1.137,1.137,0,0,0,1.136,1.135h12.731a2.329,2.329,0,0,0,2.326-2.326v-1.856A2.329,2.329,0,0,0-115.965,265.652Zm-4.238,4.4h-5.428v-1.939h5.428Z" transform="translate(132.933 -262.55)" fill="#db3832"/>
    <rect id="Rectangle_45" data-name="Rectangle 45" width="4.983" height="1.6" transform="translate(7.459 5.766)" fill="none" stroke="#000" stroke-linecap="round" stroke-linejoin="round" stroke-width="1"/>
  </g>
</svg>
