<svg id="picto_gros_electromenager" data-name="picto/gros electromenager" xmlns="http://www.w3.org/2000/svg" width="48" height="48" viewBox="0 0 48 48">
  <rect id="Rectangle_1783" data-name="Rectangle 1783" width="32.25" height="42.308" transform="translate(8.342 3)" fill="none" stroke="#000" stroke-linecap="round" stroke-linejoin="round" stroke-width="2"/>
  <line id="Ligne_3573" data-name="Ligne 3573" x2="32.25" transform="translate(8.342 10.856)" fill="#fff" stroke="#000" stroke-linecap="round" stroke-linejoin="round" stroke-width="2"/>
  <line id="Ligne_3574" data-name="Ligne 3574" x2="8.762" transform="translate(13.5 6.75)" fill="#fff" stroke="#000" stroke-linecap="round" stroke-linejoin="round" stroke-width="2"/>
  <circle id="Ellipse_572" data-name="Ellipse 572" cx="1.5" cy="1.5" r="1.5" transform="translate(29 5)"/>
  <circle id="Ellipse_573" data-name="Ellipse 573" cx="1.5" cy="1.5" r="1.5" transform="translate(35 5)"/>
  <path id="Tracé_10972" data-name="Tracé 10972" d="M34.093,38.138a3.138,3.138,0,0,0-2.4.675,3.4,3.4,0,0,1-2.15.709h-.051a3.4,3.4,0,0,1-2.15-.709,2.959,2.959,0,0,0-3.186-.428" transform="translate(-6.343 -9.525)" fill="none" stroke="#000" stroke-linecap="round" stroke-linejoin="round" stroke-width="2"/>
  <path id="Tracé_10973" data-name="Tracé 10973" d="M29.281,20.333A12.375,12.375,0,1,0,41.656,32.708,12.389,12.389,0,0,0,29.281,20.333Zm0,3.75a8.554,8.554,0,0,1,7.2,3.887,6,6,0,0,0,0,9.476,8.621,8.621,0,1,1-7.2-13.364Z" transform="translate(-4.531 -5.083)" fill="#db3832"/>
  <rect id="Rectangle_1784" data-name="Rectangle 1784" width="48" height="48" opacity="0"/>
</svg>
