<svg id="picto_TV" data-name="picto/TV" xmlns="http://www.w3.org/2000/svg" width="48" height="48" viewBox="0 0 48 48">
  <g id="tv" transform="translate(3.525 10.002)">
    <g id="Groupe_14" data-name="Groupe 14">
      <g id="Groupe_13" data-name="Groupe 13" transform="translate(14.295 26.372)">
        <line id="Ligne_36" data-name="Ligne 36" y2="4.042" transform="translate(4.932)" fill="none" stroke="rgba(0,0,0,0)" stroke-linecap="round" stroke-linejoin="round" stroke-width="2"/>
        <line id="Ligne_37" data-name="Ligne 37" x2="10.103" transform="translate(0 4.041)" fill="none" stroke="rgba(0,0,0,0)" stroke-linecap="round" stroke-linejoin="round" stroke-width="2"/>
      </g>
      <line id="Ligne_2989" data-name="Ligne 2989" y1="3.338" x2="4.909" transform="translate(0.597 3.01)" fill="none" stroke="#000" stroke-linecap="round" stroke-width="2"/>
      <line id="Ligne_2990" data-name="Ligne 2990" y1="6.158" x2="9.244" transform="translate(0.288 7.66)" fill="none" stroke="#000" stroke-linecap="round" stroke-width="2"/>
      <g id="Groupe_12" data-name="Groupe 12">
        <rect id="Rectangle_48" data-name="Rectangle 48" width="40.311" height="26.023" fill="none" stroke="#000" stroke-linecap="round" stroke-linejoin="round" stroke-width="2"/>
        <path id="Tracé_10969" data-name="Tracé 10969" d="M34.809,27.854,26.877,23.4a.756.756,0,0,0-1.126.659v9.153a.756.756,0,0,0,1.141.65l7.932-4.7a.756.756,0,0,0-.015-1.31Z" transform="translate(-10.12 -15.694)" fill="#db3832"/>
        <line id="Ligne_3000" data-name="Ligne 3000" x1="3.683" y2="4.515" transform="translate(6.973 26.139)" fill="none" stroke="#000" stroke-linecap="round" stroke-linejoin="round" stroke-width="2"/>
        <line id="Ligne_3001" data-name="Ligne 3001" x2="3.683" y2="4.515" transform="translate(29.985 26.139)" fill="none" stroke="#000" stroke-linecap="round" stroke-linejoin="round" stroke-width="2"/>
      </g>
    </g>
  </g>
  <rect id="Rectangle_1780" data-name="Rectangle 1780" width="48" height="48" fill="red" opacity="0"/>
</svg>
