<svg xmlns="http://www.w3.org/2000/svg" width="28.501" height="25" viewBox="0 0 28.501 25">
  <g id="picto_literie" data-name="picto/literie" transform="translate(0.501 -0.486)">
    <rect id="BG" width="28" height="25" transform="translate(0 0.486)" fill="#d8d1d1" opacity="0.003" style="mix-blend-mode: normal;isolation: isolate"/>
    <g id="Rectangle_1629" data-name="Rectangle 1629" transform="translate(1.777 3.107)">
      <path id="Tracé_10544" data-name="Tracé 10544" d="M-249.83,274.576h10.665a3.335,3.335,0,0,1,3.11,3.521v8.552a.476.476,0,0,1-.444.5h-16a.477.477,0,0,1-.444-.5V278.1A3.335,3.335,0,0,1-249.83,274.576Z" transform="translate(252.941 -274.576)" fill="none" stroke="#000" stroke-linecap="round" stroke-linejoin="round" stroke-width="1"/>
    </g>
    <path id="Tracé_10822" data-name="Tracé 10822" d="M-249.939,313.236v2.912" transform="translate(253.05 -291.233)" fill="none" stroke="#000" stroke-linecap="round" stroke-width="1"/>
    <path id="Tracé_10823" data-name="Tracé 10823" d="M-217.9,313.236v2.912" transform="translate(235.249 -291.233)" fill="none" stroke="#000" stroke-linecap="round" stroke-width="1"/>
    <rect id="Rectangle_31" data-name="Rectangle 31" width="5" height="3" transform="translate(4 8.486)" fill="none" stroke="#000" stroke-linecap="round" stroke-linejoin="round" stroke-width="1"/>
    <rect id="Rectangle_32" data-name="Rectangle 32" width="5" height="3" transform="translate(11 8.486)" fill="none" stroke="#000" stroke-linecap="round" stroke-linejoin="round" stroke-width="1"/>
    <path id="Tracé_10953" data-name="Tracé 10953" d="M-239.5,295.576h-13.331a2.962,2.962,0,0,0-3.11,2.777v.793a.422.422,0,0,0,.444.4h18.663a.422.422,0,0,0,.444-.4v-.793A2.962,2.962,0,0,0-239.5,295.576Z" transform="translate(256.383 -280.58)" fill="#db3832"/>
    <g id="Rectangle_1630" data-name="Rectangle 1630" transform="translate(-0.001 17.641)">
      <rect id="Rectangle_1156" data-name="Rectangle 1156" width="20.538" height="3.174" transform="translate(0 1)" fill="none" stroke="#000" stroke-linecap="round" stroke-linejoin="round" stroke-width="1"/>
    </g>
    <path id="Rectangle_30" data-name="Rectangle 30" d="M-249.955,290.576h11.47A2.769,2.769,0,0,1-236,293.56h-16.441a2.769,2.769,0,0,1,2.485-2.984Z" transform="translate(254.44 -278.563)" fill="none" stroke="#000" stroke-width="1"/>
  </g>
</svg>
