<svg id="picto_literie" data-name="picto/literie" xmlns="http://www.w3.org/2000/svg" width="48" height="48" viewBox="0 0 48 48">
  <rect id="BG" width="48" height="48" fill="#d8d1d1" opacity="0.003" style="mix-blend-mode: normal;isolation: isolate"/>
  <g id="Rectangle_1629" data-name="Rectangle 1629" transform="translate(9.75 6.75)">
    <path id="Tracé_10544" data-name="Tracé 10544" d="M-247.691,274.576h18a5.25,5.25,0,0,1,5.25,5.25v12.75a.75.75,0,0,1-.75.75h-27a.75.75,0,0,1-.75-.75v-12.75A5.25,5.25,0,0,1-247.691,274.576Z" transform="translate(252.941 -274.576)" fill="none" stroke="#000" stroke-linecap="round" stroke-linejoin="round" stroke-width="2"/>
  </g>
  <path id="Tracé_10822" data-name="Tracé 10822" d="M-249.939,313.236v5.5" transform="translate(261.94 -277.491)" fill="none" stroke="#000" stroke-linecap="round" stroke-width="2"/>
  <path id="Tracé_10823" data-name="Tracé 10823" d="M-217.9,313.236v5.5" transform="translate(253.931 -277.491)" fill="none" stroke="#000" stroke-linecap="round" stroke-width="2"/>
  <rect id="Rectangle_31" data-name="Rectangle 31" width="9.75" height="4.5" transform="translate(12.752 14.25)" fill="none" stroke="#000" stroke-linecap="round" stroke-linejoin="round" stroke-width="2"/>
  <rect id="Rectangle_32" data-name="Rectangle 32" width="9.75" height="4.5" transform="translate(25.5 14.25)" fill="none" stroke="#000" stroke-linecap="round" stroke-linejoin="round" stroke-width="2"/>
  <path id="Tracé_10953" data-name="Tracé 10953" d="M-228.189,295.576h-22.5a5.256,5.256,0,0,0-5.25,5.25v1.5a.749.749,0,0,0,.75.75h31.5a.75.75,0,0,0,.75-.75v-1.5A5.257,5.257,0,0,0-228.189,295.576Z" transform="translate(263.44 -273.076)" fill="#db3832"/>
  <g id="Rectangle_1630" data-name="Rectangle 1630" transform="translate(6.75 29.39)">
    <rect id="Rectangle_1156" data-name="Rectangle 1156" width="34.665" height="6" fill="none" stroke="#000" stroke-linecap="round" stroke-linejoin="round" stroke-width="2"/>
  </g>
  <path id="Rectangle_30" data-name="Rectangle 30" d="M-248.245,290.576h19.359a4.2,4.2,0,0,1,4.2,4.2h-27.75a4.2,4.2,0,0,1,4.194-4.2Z" transform="translate(262.566 -271.826)" fill="none" stroke="#000" stroke-width="2"/>
</svg>
