<svg xmlns="http://www.w3.org/2000/svg" width="48" height="48" viewBox="0 0 48 48">
  <g id="picto_jardin" data-name="picto/jardin" transform="translate(-422 -963)">
    <g id="Rectangle_1874" data-name="Rectangle 1874" transform="translate(422 963)" fill="#fff" stroke="#707070" stroke-width="1" opacity="0">
      <rect width="48" height="48" stroke="none"/>
      <rect x="0.5" y="0.5" width="47" height="47" fill="none"/>
    </g>
    <g id="Groupe_5852" data-name="Groupe 5852" transform="translate(431.75 966.75)">
      <path id="Tracé_11120" data-name="Tracé 11120" d="M4275.392-4003.322s-3.119,2.953-3.772,9.253a23.084,23.084,0,0,0,.076,5.036" transform="translate(-4257.879 4012.32)" fill="none" stroke="#000" stroke-width="2"/>
      <g id="Tracé_11121" data-name="Tracé 11121" transform="translate(3.147 19.955)" fill="#fff" stroke-linecap="round" stroke-linejoin="round">
        <path d="M 19.41880798339844 19.19479751586914 L 2.649549961090088 19.19479751586914 L 1.089412689208984 0.9999977946281433 L 20.97818756103516 0.9999977946281433 L 19.41880798339844 19.19479751586914 Z" stroke="none"/>
        <path d="M 2.178834915161133 1.999998092651367 L 3.567480087280273 18.19479751586914 L 18.5008544921875 18.19479751586914 L 19.88882446289062 1.999998092651367 L 2.178834915161133 1.999998092651367 M 1.9073486328125e-06 -1.9073486328125e-06 L 22.06756019592285 -1.9073486328125e-06 L 20.33677101135254 20.19479751586914 L 1.731630325317383 20.19479751586914 L 1.9073486328125e-06 -1.9073486328125e-06 Z" stroke="none" fill="#000"/>
      </g>
      <g id="Tracé_11122" data-name="Tracé 11122" transform="translate(1 17.826)" fill="#db3832">
        <path d="M 24.66678237915039 6.5525221824646 L 1.655183076858521 6.5525221824646 C 0.9978631138801575 6.5525221824646 0.4425330758094788 6.145812511444092 0.4425330758094788 5.664392471313477 L 0.4425330758094788 5.606002330780029 L 0.4357330799102783 5.548002243041992 L 0.001602726173587143 1.843419313430786 C 0.03467351198196411 1.381802916526794 0.5757941007614136 1.000002264976501 1.212653040885925 1.000002264976501 L 25.10931396484375 1.000002264976501 C 25.74617195129395 1.000002264976501 26.28729248046875 1.381802916526794 26.32036399841309 1.843419313430786 L 25.88623237609863 5.548002243041992 L 25.87943267822266 5.606002330780029 L 25.87943267822266 5.664392471313477 C 25.87943267822266 6.145812511444092 25.3241024017334 6.5525221824646 24.66678237915039 6.5525221824646 Z" stroke="none"/>
        <path d="M 1.212652206420898 2.000002384185791 C 1.135919570922852 2.000002384185791 1.074972152709961 2.013355255126953 1.030250549316406 2.029435157775879 L 1.437971115112305 5.508667469024658 C 1.483467102050781 5.53029727935791 1.556198120117188 5.5525221824646 1.655183792114258 5.5525221824646 L 24.66678237915039 5.5525221824646 C 24.76576805114746 5.5525221824646 24.83849906921387 5.53029727935791 24.88399505615234 5.508667469024658 L 25.29171562194824 2.029435157775879 C 25.24699401855469 2.013355255126953 25.1860466003418 2.000002384185791 25.10931396484375 2.000002384185791 L 1.212652206420898 2.000002384185791 M 1.212652206420898 2.384185791015625e-06 L 25.10931396484375 2.384185791015625e-06 C 26.33132362365723 2.384185791015625e-06 27.32196235656738 0.8453421592712402 27.32196235656738 1.888132095336914 L 26.87943267822266 5.664392471313477 C 26.87943267822266 6.70718240737915 25.8887939453125 7.5525221824646 24.66678237915039 7.5525221824646 L 1.655183792114258 7.5525221824646 C 0.4331722259521484 7.5525221824646 -0.5574665069580078 6.70718240737915 -0.5574665069580078 5.664392471313477 L -0.9999961853027344 1.888132095336914 C -0.9999961853027344 0.8453421592712402 -0.009357452392578125 2.384185791015625e-06 1.212652206420898 2.384185791015625e-06 Z" stroke="none" fill="#db3832"/>
      </g>
      <path id="Tracé_11123" data-name="Tracé 11123" d="M4018.5-4003.658s-.846-8.386,10.028-10.141C4028.424-4011.064,4028.023-4004.169,4018.5-4003.658Z" transform="translate(-4001.649 4013.799)" fill="#db3832" stroke="#db3832" stroke-width="1"/>
      <path id="Tracé_11124" data-name="Tracé 11124" d="M.015,10.141S-.831,1.756,10.043,0C9.942,2.735,9.541,9.631.015,10.141Z" transform="translate(6.692 10.092) rotate(-90)" fill="#db3832" stroke="#db3832" stroke-width="1"/>
    </g>
  </g>
</svg>
