<svg id="picto_refrigerateur" data-name="picto/refrigerateur" xmlns="http://www.w3.org/2000/svg" width="25" height="25" viewBox="0 0 25 25">
  <path id="Tracé_11132" data-name="Tracé 11132" d="M0,0H25V25H0Z" opacity="0"/>
  <rect id="Rectangle_1781" data-name="Rectangle 1781" width="15" height="21" rx="2" transform="translate(5 2)" fill="none" stroke="#000" stroke-linecap="round" stroke-linejoin="round" stroke-width="1"/>
  <line id="Ligne_3572" data-name="Ligne 3572" x2="14.422" transform="translate(5.078 10.186)" fill="#fff" stroke="#000" stroke-linecap="round" stroke-linejoin="round" stroke-width="1"/>
  <path id="Tracé_10970" data-name="Tracé 10970" d="M22.293,31.391,16.824,31a.4.4,0,0,0-.294.1.391.391,0,0,0-.124.286v.781a.39.39,0,0,0,.391.391h.028l5.469-.391a.391.391,0,0,0,0-.78Z" transform="translate(-9.765 -18.891)" fill="#db3832"/>
  <path id="Tracé_10971" data-name="Tracé 10971" d="M22.293,17.6l-5.469-.391a.391.391,0,0,0-.418.389v.781a.39.39,0,0,0,.391.391h.028l5.469-.391a.391.391,0,0,0,0-.779Z" transform="translate(-9.765 -10.487)" fill="#db3832"/>
</svg>
