<svg xmlns="http://www.w3.org/2000/svg" width="25" height="25" viewBox="0 0 25 25">
  <g id="picto_biberon" data-name="picto/biberon" transform="translate(-467 -558.238)">
    <g id="Rectangle_1876" data-name="Rectangle 1876" transform="translate(467 558.238)" fill="#fff" stroke="#707070" stroke-width="1" opacity="0">
      <rect width="25" height="25" stroke="none"/>
      <rect x="0.5" y="0.5" width="24" height="24" fill="none"/>
    </g>
    <g id="biberon_" data-name="biberon " transform="translate(468.571 560.76)">
      <g id="Groupe_5853" data-name="Groupe 5853" transform="translate(0.315 7.492)">
        <g id="Rectangle_1877" data-name="Rectangle 1877" transform="translate(0.113 -0.015)" fill="#fff" stroke="#000" stroke-width="1">
          <path d="M0,0H10a0,0,0,0,1,0,0V11a1,1,0,0,1-1,1H1a1,1,0,0,1-1-1V0A0,0,0,0,1,0,0Z" stroke="none"/>
          <rect x="0.5" y="0.5" width="9" height="11" rx="0.5" fill="none"/>
        </g>
        <line id="Ligne_3651" data-name="Ligne 3651" x1="2.027" transform="translate(4.479 3.746)" fill="none" stroke="#000" stroke-linecap="round" stroke-width="1"/>
        <line id="Ligne_3652" data-name="Ligne 3652" x1="3.186" transform="translate(3.321 5.718)" fill="none" stroke="#000" stroke-linecap="round" stroke-width="1"/>
        <line id="Ligne_3653" data-name="Ligne 3653" x1="1.972" transform="translate(4.535 7.69)" fill="none" stroke="#000" stroke-linecap="round" stroke-width="1"/>
        <line id="Ligne_3654" data-name="Ligne 3654" y2="6.704" transform="translate(7.69 3.352)" fill="none" stroke="#000" stroke-linecap="round" stroke-width="1"/>
        <line id="Ligne_3655" data-name="Ligne 3655" x1="3.186" transform="translate(3.321 9.661)" fill="none" stroke="#000" stroke-linecap="round" stroke-width="1"/>
      </g>
      <g id="Groupe_5854" data-name="Groupe 5854" transform="translate(1.507 -1)">
        <g id="Ellipse_580" data-name="Ellipse 580" transform="translate(1.941)" fill="#db3832" stroke="#db3832" stroke-width="1">
          <circle cx="1.972" cy="1.972" r="1.972" stroke="none"/>
          <circle cx="1.972" cy="1.972" r="1.472" fill="none"/>
        </g>
        <path id="Tracé_11131" data-name="Tracé 11131" d="M4.188,0C6.645,0,9.563,3.283,8.637,3.283h-8.9C-1.243,3.283,1.73,0,4.188,0Z" transform="translate(-0.234 2.632)" fill="#db3832"/>
      </g>
      <g id="Rectangle_1875" data-name="Rectangle 1875" transform="translate(-1.571 4.477)" fill="none" stroke="#000" stroke-width="1">
        <rect width="14" height="4" rx="2" stroke="none"/>
        <rect x="0.5" y="0.5" width="13" height="3" rx="1.5" fill="none"/>
      </g>
    </g>
  </g>
</svg>
