<svg xmlns="http://www.w3.org/2000/svg" width="26" height="25" viewBox="0 0 26 25">
  <g id="picto_jardin" data-name="picto/jardin" transform="translate(-422 -964)">
    <g id="Rectangle_1874" data-name="Rectangle 1874" transform="translate(422 964)" fill="#fff" stroke="#707070" stroke-width="1" opacity="0">
      <rect width="26" height="25" stroke="none"/>
      <rect x="0.5" y="0.5" width="25" height="24" fill="none"/>
    </g>
    <g id="Groupe_5852" data-name="Groupe 5852" transform="translate(426.276 965.057)">
      <path id="Tracé_11120" data-name="Tracé 11120" d="M4273.613-4003.322a8.312,8.312,0,0,0-2.041,5.007,12.477,12.477,0,0,0,.042,2.725" transform="translate(-4264.137 4008.191)" fill="none" stroke="#000" stroke-width="1"/>
      <g id="Tracé_11121" data-name="Tracé 11121" transform="translate(1.703 10.798)" fill="#fff" stroke-linecap="round" stroke-linejoin="round">
        <path d="M 10.54502964019775 10.42718029022217 L 1.395926594734192 10.42718029022217 L 0.5447032451629639 0.5000005960464478 L 11.39583492279053 0.5000005960464478 L 10.54502964019775 10.42718029022217 Z" stroke="none"/>
        <path d="M 1.089408874511719 1.000000953674316 L 1.854885101318359 9.927180290222168 L 10.08604335784912 9.927180290222168 L 10.8511438369751 1.000000953674316 L 1.089408874511719 1.000000953674316 M -2.86102294921875e-06 9.5367431640625e-07 L 11.94051647186279 9.5367431640625e-07 L 11.00400638580322 10.92718029022217 L 0.9369668960571289 10.92718029022217 L -2.86102294921875e-06 9.5367431640625e-07 Z" stroke="none" fill="#000"/>
      </g>
      <g id="Tracé_11122" data-name="Tracé 11122" transform="translate(1 9.645)" fill="#db3832">
        <path d="M 12.88801288604736 3.086583852767944 L 0.4366925656795502 3.086583852767944 C 0.330572783946991 3.086583852767944 0.2656367123126984 3.048871755599976 0.2394525557756424 3.026888608932495 L 0.2394525557756424 3.006553888320923 L 0.232652559876442 2.948554039001465 L 0.0103668225929141 1.051721811294556 C 0.04138757660984993 1.029675006866455 0.1031132340431213 1.000003933906555 0.1972425580024719 1.000003933906555 L 13.12746238708496 1.000003933906555 C 13.22159194946289 1.000003933906555 13.28331756591797 1.029675006866455 13.31433868408203 1.051721811294556 L 13.0920524597168 2.948554039001465 L 13.08525276184082 3.006553888320923 L 13.08525276184082 3.026888608932495 C 13.05906867980957 3.048871755599976 12.99413204193115 3.086583852767944 12.88801288604736 3.086583852767944 Z" stroke="none"/>
        <path d="M 1.12834358215332 2.000004053115845 L 1.138489723205566 2.086583852767944 L 12.1862154006958 2.086583852767944 L 12.19636154174805 2.000004053115845 L 1.12834358215332 2.000004053115845 M 0.1972427368164062 3.814697265625e-06 L 13.12746238708496 3.814697265625e-06 C 13.78868293762207 3.814697265625e-06 14.32470226287842 0.4574038982391357 14.32470226287842 1.021643877029419 L 14.08525276184082 3.064943790435791 C 14.08525276184082 3.629184007644653 13.54923248291016 4.086584091186523 12.88801288604736 4.086584091186523 L 0.4366922378540039 4.086584091186523 C -0.2245273590087891 4.086584091186523 -0.7605476379394531 3.629184007644653 -0.7605476379394531 3.064943790435791 L -0.9999971389770508 1.021643877029419 C -0.9999971389770508 0.4574038982391357 -0.4639778137207031 3.814697265625e-06 0.1972427368164062 3.814697265625e-06 Z" stroke="none" fill="#db3832"/>
      </g>
      <path id="Tracé_11123" data-name="Tracé 11123" d="M4018.491-4008.312s-.458-4.538,5.426-5.488C4023.862-4012.319,4023.645-4008.588,4018.491-4008.312Z" transform="translate(-4009.374 4013.799)" fill="#db3832" stroke="#db3832" stroke-width="1"/>
      <path id="Tracé_11124" data-name="Tracé 11124" d="M.008,5.487S-.449.95,5.434,0C5.38,1.48,5.163,5.211.008,5.487Z" transform="translate(3.621 5.461) rotate(-90)" fill="#db3832" stroke="#db3832" stroke-width="1"/>
    </g>
  </g>
</svg>
