<svg id="picto_meuble" data-name="picto/meuble" xmlns="http://www.w3.org/2000/svg" width="48" height="48" viewBox="0 0 48 48">
  <g id="Rectangle_1862" data-name="Rectangle 1862" fill="#fff" stroke="#707070" stroke-width="1" opacity="0">
    <rect width="48" height="48" stroke="none"/>
    <rect x="0.5" y="0.5" width="47" height="47" fill="none"/>
  </g>
  <g id="meuble" transform="translate(3.75 7.5)">
    <g id="Rectangle_1863" data-name="Rectangle 1863" transform="translate(0 1)" fill="none" stroke="#000" stroke-width="2">
      <path d="M4,0H37.25a4,4,0,0,1,4,4V15a0,0,0,0,1,0,0H0a0,0,0,0,1,0,0V4A4,4,0,0,1,4,0Z" stroke="none"/>
      <path d="M4,1H37.25a3,3,0,0,1,3,3v9a1,1,0,0,1-1,1H2a1,1,0,0,1-1-1V4A3,3,0,0,1,4,1Z" fill="none"/>
    </g>
    <g id="Rectangle_1864" data-name="Rectangle 1864" transform="translate(0 13.701)" fill="none" stroke="#000" stroke-width="2">
      <path d="M0,0H41.25a0,0,0,0,1,0,0V11a4,4,0,0,1-4,4H4a4,4,0,0,1-4-4V0A0,0,0,0,1,0,0Z" stroke="none"/>
      <path d="M2,1H39.25a1,1,0,0,1,1,1v9a3,3,0,0,1-3,3H4a3,3,0,0,1-3-3V2A1,1,0,0,1,2,1Z" fill="none"/>
    </g>
    <line id="Ligne_3000" data-name="Ligne 3000" x1="3.655" y2="4.481" transform="translate(7.755 27.951)" fill="none" stroke="#000" stroke-linecap="round" stroke-linejoin="round" stroke-width="2"/>
    <line id="Ligne_3001" data-name="Ligne 3001" x2="3.655" y2="4.481" transform="translate(30.59 27.951)" fill="none" stroke="#000" stroke-linecap="round" stroke-linejoin="round" stroke-width="2"/>
    <g id="Ellipse_576" data-name="Ellipse 576" transform="translate(18.75 6.25)" fill="#db3832" stroke="#db3832" stroke-width="1">
      <circle cx="1.875" cy="1.875" r="1.875" stroke="none"/>
      <circle cx="1.875" cy="1.875" r="1.375" fill="none"/>
    </g>
    <g id="Ellipse_577" data-name="Ellipse 577" transform="translate(18.75 18.75)" fill="#db3832" stroke="#db3832" stroke-width="1">
      <circle cx="1.875" cy="1.875" r="1.875" stroke="none"/>
      <circle cx="1.875" cy="1.875" r="1.375" fill="none"/>
    </g>
  </g>
</svg>
