<svg xmlns="http://www.w3.org/2000/svg" width="25" height="25" viewBox="0 0 25 25">
  <g id="picto_gros_electromenager" data-name="picto/gros electromenager" transform="translate(2)">
    <rect id="Rectangle_1783" data-name="Rectangle 1783" width="16.797" height="22.035" transform="translate(2.345 1.563)" fill="none" stroke="#000" stroke-linecap="round" stroke-linejoin="round" stroke-width="1"/>
    <path id="Tracé_11079" data-name="Tracé 11079" d="M25,0V25H0Z" transform="translate(-2)" opacity="0"/>
    <line id="Ligne_3573" data-name="Ligne 3573" x2="16.797" transform="translate(2.345 5.654)" fill="#fff" stroke="#000" stroke-linecap="round" stroke-linejoin="round" stroke-width="1"/>
    <line id="Ligne_3574" data-name="Ligne 3574" x2="4.564" transform="translate(5.031 3.516)" fill="#fff" stroke="#000" stroke-linecap="round" stroke-linejoin="round" stroke-width="1"/>
    <circle id="Ellipse_572" data-name="Ellipse 572" cx="0.5" cy="0.5" r="0.5" transform="translate(13 3)"/>
    <circle id="Ellipse_573" data-name="Ellipse 573" cx="0.5" cy="0.5" r="0.5" transform="translate(16 3)"/>
    <path id="Tracé_10972" data-name="Tracé 10972" d="M29.331,38.12a1.635,1.635,0,0,0-1.25.352,1.772,1.772,0,0,1-1.12.369h-.027a1.772,1.772,0,0,1-1.12-.369,1.541,1.541,0,0,0-1.659-.223" transform="translate(-16.878 -23.217)" fill="none" stroke="#000" stroke-linecap="round" stroke-linejoin="round" stroke-width="1"/>
    <path id="Tracé_10973" data-name="Tracé 10973" d="M23.351,20.333A6.445,6.445,0,1,0,29.8,26.778,6.453,6.453,0,0,0,23.351,20.333Zm0,1.953A4.455,4.455,0,0,1,27.1,24.311a3.124,3.124,0,0,0,0,4.936,4.49,4.49,0,1,1-3.748-6.96Z" transform="translate(-12.461 -12.39)" fill="#db3832"/>
  </g>
</svg>
