<svg id="picto_luminaire" data-name="picto/luminaire" xmlns="http://www.w3.org/2000/svg" width="25" height="25" viewBox="0 0 25 25">
  <rect id="Rectangle_1149" data-name="Rectangle 1149" width="25" height="25" fill="rgba(255,75,75,0)"/>
  <g id="Deco_icon" data-name="Deco icon" transform="translate(3.672 3.735)">
    <g id="Groupe_5577" data-name="Groupe 5577">
      <g id="Groupe_5312" data-name="Groupe 5312">
        <path id="Rectangle_1660" data-name="Rectangle 1660" d="M-169.016,360.27l5.559,3.75-1.356,1.441-6.029-4.067Z" transform="translate(179.318 -357.093)" fill="#db3832"/>
        <path id="Rectangle_1661" data-name="Rectangle 1661" d="M-162.865,378.2l-5.146,4.471-2.763-.186,6.113-5.313Z" transform="translate(179.277 -367.396)" fill="#db3832"/>
        <path id="Tracé_10615" data-name="Tracé 10615" d="M-181.583,353.051h0a1.783,1.783,0,0,0-2.435-.653h0L-186,353.544a5.671,5.671,0,0,0-6.538-.666l5.714,9.812a5.678,5.678,0,0,0,2.634-6.072l1.955-1.129a1.783,1.783,0,0,0,.655-2.436v0Z" transform="translate(192.54 -352.138)" fill="none" stroke="#000" stroke-linecap="round" stroke-linejoin="round" stroke-width="1"/>
        <path id="Tracé_10617" data-name="Tracé 10617" d="M-187.488,365.317a2.379,2.379,0,0,1-3.148-1.187,2.377,2.377,0,0,1-.212-.979h0a2.375,2.375,0,0,1,.974-1.919" transform="translate(191.508 -357.68)" fill="none" stroke="#000" stroke-linecap="round" stroke-linejoin="round" stroke-width="1"/>
        <circle id="Ellipse_552" data-name="Ellipse 552" cx="1.758" cy="1.758" r="1.758" transform="translate(14.452 7.034)" fill="none" stroke="#000" stroke-linecap="round" stroke-linejoin="round" stroke-width="1"/>
      </g>
    </g>
    <path id="Tracé_10851" data-name="Tracé 10851" d="M-180.542,393.879h0a2.581,2.581,0,0,1,2.373-2.734h5.8A2.58,2.58,0,0,1-170,393.879Z" transform="translate(185.229 -375.908)" fill="none" stroke="#000" stroke-linecap="round" stroke-linejoin="round" stroke-width="1"/>
  </g>
</svg>
