<svg xmlns="http://www.w3.org/2000/svg" width="25" height="25" viewBox="0 0 25 25">
  <g id="picto_TV" data-name="picto/TV" transform="translate(0 0)">
    <g id="tv" transform="translate(1.822 5.17)">
      <g id="Groupe_14" data-name="Groupe 14">
        <path id="Tracé_11080" data-name="Tracé 11080" d="M0,0H25V25H0Z" transform="translate(-1.822 -5.17)" fill="red" opacity="0"/>
        <g id="Groupe_13" data-name="Groupe 13" transform="translate(7.388 13.63)">
          <line id="Ligne_36" data-name="Ligne 36" y2="2.089" transform="translate(2.549)" fill="none" stroke="rgba(0,0,0,0)" stroke-linecap="round" stroke-linejoin="round" stroke-width="2"/>
          <line id="Ligne_37" data-name="Ligne 37" x2="5.222" transform="translate(0 2.089)" fill="none" stroke="rgba(0,0,0,0)" stroke-linecap="round" stroke-linejoin="round" stroke-width="2"/>
        </g>
        <line id="Ligne_2989" data-name="Ligne 2989" y1="1.725" x2="2.537" transform="translate(0.308 1.556)" fill="none" stroke="#000" stroke-linecap="round" stroke-width="1"/>
        <line id="Ligne_2990" data-name="Ligne 2990" y1="3.183" x2="4.778" transform="translate(0.149 3.959)" fill="none" stroke="#000" stroke-linecap="round" stroke-width="1"/>
        <g id="Groupe_12" data-name="Groupe 12">
          <rect id="Rectangle_48" data-name="Rectangle 48" width="20.835" height="13.45" fill="none" stroke="#000" stroke-linecap="round" stroke-linejoin="round" stroke-width="1"/>
          <path id="Tracé_10969" data-name="Tracé 10969" d="M30.433,25.656l-4.1-2.3a.391.391,0,0,0-.582.341v4.73a.391.391,0,0,0,.59.336l4.1-2.43a.391.391,0,0,0-.008-.677Z" transform="translate(-17.672 -19.372)" fill="#db3832"/>
          <line id="Ligne_3000" data-name="Ligne 3000" x1="1.904" y2="2.334" transform="translate(3.604 13.51)" fill="none" stroke="#000" stroke-linecap="round" stroke-linejoin="round" stroke-width="1"/>
          <line id="Ligne_3001" data-name="Ligne 3001" x2="1.904" y2="2.334" transform="translate(15.498 13.51)" fill="none" stroke="#000" stroke-linecap="round" stroke-linejoin="round" stroke-width="1"/>
        </g>
      </g>
    </g>
  </g>
</svg>
