<svg xmlns="http://www.w3.org/2000/svg" width="48" height="48" viewBox="0 0 48 48">
  <g id="picto_electromenager" data-name="picto/electromenager" transform="translate(0.001 0)">
    <g id="ico_electromenager" data-name="ico electromenager" transform="translate(0 0)">
      <rect id="BG" width="48" height="48" transform="translate(-0.001 0)" fill="none"/>
      <rect id="Rectangle_41" data-name="Rectangle 41" width="34" height="4" transform="translate(6.999 37)" fill="none" stroke="#000" stroke-linecap="round" stroke-linejoin="round" stroke-width="2"/>
      <rect id="Rectangle_42" data-name="Rectangle 42" width="5.158" height="20.632" transform="translate(11.614 16.059)" fill="none" stroke="#000" stroke-linecap="round" stroke-linejoin="round" stroke-width="2"/>
      <line id="Ligne_35" data-name="Ligne 35" y2="14.316" transform="translate(29.338 16.809)" fill="none" stroke="#000" stroke-linecap="round" stroke-linejoin="round" stroke-width="2"/>
      <rect id="Rectangle_44" data-name="Rectangle 44" width="6.19" height="9.847" rx="3" transform="translate(26.243 21.685)" fill="none" stroke="#000" stroke-linecap="round" stroke-linejoin="round" stroke-width="2"/>
    </g>
    <path id="Tracé_10952" data-name="Tracé 10952" d="M-103.01,265.652h-24.625a2.2,2.2,0,0,0-2.2,2.2v8.2a2.2,2.2,0,0,0,2.2,2.2h24.625a4.5,4.5,0,0,0,4.5-4.5v-3.589A4.5,4.5,0,0,0-103.01,265.652Zm-8.2,8.511h-10.5v-3.75h10.5Z" transform="translate(135.831 -259.653)" fill="#db3832"/>
    <rect id="Rectangle_45" data-name="Rectangle 45" width="9.638" height="3.094" transform="translate(14.427 11.152)" fill="none" stroke="#000" stroke-linecap="round" stroke-linejoin="round" stroke-width="2"/>
  </g>
</svg>
