<svg width="10" height="10" viewBox="0 0 10 10" fill="none" xmlns="http://www.w3.org/2000/svg">
<path d="M5.93996 4.99882L8.80663 2.13882C8.93216 2.01329 9.00269 1.84302 9.00269 1.66549C9.00269 1.48795 8.93216 1.31769 8.80663 1.19215C8.68109 1.06662 8.51083 0.996094 8.33329 0.996094C8.15576 0.996094 7.9855 1.06662 7.85996 1.19215L4.99996 4.05882L2.13996 1.19215C2.01442 1.06662 1.84416 0.996094 1.66663 0.996094C1.48909 0.996094 1.31883 1.06662 1.19329 1.19215C1.06776 1.31769 0.997231 1.48795 0.997231 1.66549C0.997231 1.84302 1.06776 2.01329 1.19329 2.13882L4.05996 4.99882L1.19329 7.85882C1.13081 7.9208 1.08121 7.99453 1.04737 8.07577C1.01352 8.15701 0.996094 8.24415 0.996094 8.33216C0.996094 8.42016 1.01352 8.5073 1.04737 8.58854C1.08121 8.66978 1.13081 8.74351 1.19329 8.80549C1.25527 8.86797 1.329 8.91757 1.41024 8.95142C1.49148 8.98526 1.57862 9.00269 1.66663 9.00269C1.75463 9.00269 1.84177 8.98526 1.92301 8.95142C2.00425 8.91757 2.07798 8.86797 2.13996 8.80549L4.99996 5.93882L7.85996 8.80549C7.92194 8.86797 7.99567 8.91757 8.07691 8.95142C8.15815 8.98526 8.24529 9.00269 8.33329 9.00269C8.4213 9.00269 8.50844 8.98526 8.58968 8.95142C8.67092 8.91757 8.74465 8.86797 8.80663 8.80549C8.86911 8.74351 8.91871 8.66978 8.95255 8.58854C8.9864 8.5073 9.00383 8.42016 9.00383 8.33216C9.00383 8.24415 8.9864 8.15701 8.95255 8.07577C8.91871 7.99453 8.86911 7.9208 8.80663 7.85882L5.93996 4.99882Z" fill="#00D1D2"/>
</svg>
